<svg width="53" height="27" viewBox="0 0 53 27" fill="none" xmlns="http://www.w3.org/2000/svg">
<path d="M0.448429 14.3235L9.6525 25.5138C9.94822 25.8719 10.3179 26.0509 10.6875 26.0509C11.0572 26.0509 11.4268 25.8719 11.7225 25.5138C12.3139 24.7976 12.3139 23.6786 11.7225 22.9624L5.03198 14.8159H26.6191C27.4323 14.8159 28.0977 14.0102 28.0977 13.0254C28.0977 12.0407 27.4323 11.235 26.6191 11.235H5.03198L11.7225 3.08851C12.3139 2.37234 12.3139 1.25331 11.7225 0.537132C11.1311 -0.179044 10.207 -0.179044 9.61555 0.537132L0.411451 11.7274C-0.143013 12.4883 -0.142998 13.6521 0.448429 14.3235Z" fill="#BDBDBD"/>
<rect width="50" height="4.00159" rx="2.00079" transform="matrix(-1 0 0 1 52.6855 11.0449)" fill="#BDBDBD"/>
</svg>
