<svg width="92" height="27" viewBox="0 0 92 27" fill="none" xmlns="http://www.w3.org/2000/svg">
<path d="M91.2371 14.3235L82.033 25.5138C81.7373 25.8719 81.3677 26.0509 80.998 26.0509C80.6284 26.0509 80.2587 25.8719 79.963 25.5138C79.3716 24.7976 79.3716 23.6786 79.963 22.9624L86.6536 14.8159H65.0665C64.2532 14.8159 63.5879 14.0102 63.5879 13.0254C63.5879 12.0407 64.2532 11.235 65.0665 11.235H86.6536L79.963 3.08851C79.3716 2.37234 79.3716 1.25331 79.963 0.537132C80.5545 -0.179044 81.4786 -0.179044 82.07 0.537132L91.2741 11.7274C91.8286 12.4883 91.8285 13.6521 91.2371 14.3235Z" fill="#FE004C"/>
<rect y="10.832" width="88.7142" height="4.47534" rx="2.23767" fill="#FE004C"/>
</svg>
