<svg width="380" height="237" viewBox="0 0 380 237" fill="none" xmlns="http://www.w3.org/2000/svg">
<mask id="mask0_2069:10188" style="mask-type:alpha" maskUnits="userSpaceOnUse" x="0" y="0" width="380" height="237">
<rect width="380" height="237" rx="10" fill="url(#paint0_linear_2069:10188)"/>
</mask>
<g mask="url(#mask0_2069:10188)">
<path d="M252.705 205.377C252.705 238.215 225.032 264.836 190.896 264.836C156.76 264.836 129.088 238.215 129.088 205.377C129.088 188.064 136.78 172.478 149.056 161.612C160.064 151.868 174.758 145.918 190.896 145.918C225.032 145.918 252.705 172.539 252.705 205.377Z" fill="white" fill-opacity="0.12"/>
<path d="M252.705 205.377C252.705 238.215 225.032 264.836 190.896 264.836H369.28C335.144 264.836 307.471 238.215 307.471 205.377C307.471 201.182 307.923 197.089 308.782 193.14C305.871 193.544 302.894 193.754 299.867 193.754C269.866 193.754 244.857 173.192 239.239 145.918H198.921H190.896C225.032 145.918 252.705 172.539 252.705 205.377Z" fill="white" fill-opacity="0.12"/>
<path d="M239.239 145.918C238.465 142.159 238.059 138.273 238.059 134.295C238.059 129.071 238.759 124.004 240.074 119.177C234.909 128.091 219.448 145.918 198.921 145.918H239.239Z" fill="white" fill-opacity="0.12"/>
<path fill-rule="evenodd" clip-rule="evenodd" d="M369.28 264.836C403.415 264.836 431.088 238.215 431.088 205.377C431.088 172.539 403.415 145.918 369.28 145.918C366.252 145.918 363.276 146.127 360.365 146.532C355.096 170.758 334.501 189.566 308.782 193.14C307.923 197.089 307.471 201.182 307.471 205.377C307.471 238.215 335.144 264.836 369.28 264.836Z" fill="white" fill-opacity="0.12"/>
<path d="M360.365 146.532C355.096 170.758 334.501 189.566 308.782 193.14C314.05 168.914 334.646 150.106 360.365 146.532Z" fill="white" fill-opacity="0.12"/>
<path d="M361.675 134.295C361.675 101.457 334.003 74.8359 299.867 74.8359C271.162 74.8359 247.027 93.6604 240.074 119.177C238.759 124.004 238.059 129.071 238.059 134.295C238.059 138.273 238.465 142.159 239.239 145.918C244.857 173.192 269.866 193.754 299.867 193.754C302.894 193.754 305.871 193.544 308.782 193.14C314.05 168.914 334.646 150.106 360.365 146.532C361.224 142.583 361.675 138.49 361.675 134.295Z" fill="white" fill-opacity="0.12"/>
</g>
<defs>
<linearGradient id="paint0_linear_2069:10188" x1="190" y1="0" x2="190" y2="237" gradientUnits="userSpaceOnUse">
<stop stop-color="#FE004C"/>
<stop offset="1" stop-color="#FF477E"/>
</linearGradient>
</defs>
</svg>
