<svg width="32" height="32" viewBox="0 0 32 32" fill="none" xmlns="http://www.w3.org/2000/svg">
<path fill-rule="evenodd" clip-rule="evenodd" d="M0.829467 15.3506C0.970374 13.8006 1.58922 12.3308 2.62368 11.168C5.21481 8.2553 8.97332 4.22042 10.7786 2.95676C12.3241 1.87487 13.7802 1.26724 14.7738 0.966024C15.4343 0.765751 16.1305 0.763725 16.818 0.82622C18.153 0.947583 19.4479 1.34655 20.6197 1.99756L21.9686 2.74698C23.2164 3.44019 24.3715 4.28845 25.4064 5.27158L27.6208 7.37527C28.804 8.49936 29.7825 9.82089 30.5124 11.2807C31.2541 12.7641 31.7666 14.3682 31.7452 16.0266C31.7235 17.71 31.5014 19.6302 30.7996 20.7532C29.6873 22.5328 27.9262 24.6462 27.1847 25.4804L22.7122 29.482C22.1734 29.9641 21.5808 30.3824 20.9461 30.7286L20.6535 30.8882C19.4652 31.5363 18.1333 31.876 16.7797 31.876C16.1183 31.876 15.4593 31.7948 14.8176 31.6344L14.3638 31.521C13.0946 31.2037 11.8865 30.6791 10.7882 29.9684L9.72371 29.2796C8.39272 28.4184 7.17161 27.3983 6.08734 26.2417L4.80939 24.8786C3.97202 23.9854 3.24535 22.9945 2.64511 21.9274L2.10303 20.9637C1.40632 19.7251 0.979616 18.3531 0.850957 16.9379L0.829467 16.7015C0.788615 16.2521 0.788615 15.7999 0.829467 15.3506ZM7.75427 15.776C7.83264 14.9185 8.17641 14.1056 8.75044 13.4637C10.1925 11.8511 12.2859 9.61554 13.2911 8.91564C14.1513 8.31667 14.9617 7.98029 15.5146 7.81357C15.8822 7.70274 16.2694 7.70163 16.6517 7.73621C17.395 7.80342 18.1161 8.02453 18.7693 8.38548L19.5167 8.79851C20.2123 9.18292 20.8566 9.65365 21.4343 10.1995L22.6672 11.3646C23.3236 11.9849 23.8668 12.7148 24.2723 13.5217C24.6857 14.3441 24.9715 15.2339 24.9593 16.1542C24.9469 17.0852 24.8232 18.1464 24.4331 18.7672C23.8141 19.7524 22.834 20.9223 22.4213 21.3841L19.9337 23.598C19.6329 23.8657 19.3023 24.0979 18.9484 24.2899L18.788 24.3769C18.1257 24.7363 17.3841 24.9245 16.6306 24.9245C16.2626 24.9245 15.896 24.8796 15.5389 24.7908L15.287 24.7281C14.5802 24.5524 13.9071 24.2616 13.2947 23.8674L12.7057 23.4883C11.9639 23.0109 11.2829 22.4449 10.6778 21.8028L9.96702 21.0487C9.50241 20.5557 9.099 20.0085 8.76555 19.4188L8.46209 18.8822C8.07499 18.1977 7.83779 17.4387 7.76621 16.6555L7.75427 16.5248C7.73151 16.2757 7.73151 16.0251 7.75427 15.776Z" fill="#53B7D1"/>
</svg>
