<svg width="24" height="26" viewBox="0 0 24 26" fill="none" xmlns="http://www.w3.org/2000/svg">
<path d="M11.7171 8.64129C11.1031 7.35424 9.69727 4.30269 9.69727 3.30705C9.69727 2.03214 10.7274 1 11.9999 1C13.2724 1 14.3025 2.03214 14.3025 3.30705C14.3025 4.29864 12.9088 7.32589 12.2907 8.62508" stroke="#F8F8F8" stroke-width="1.5" stroke-miterlimit="10" stroke-linejoin="round"/>
<path d="M7.5323 4.18374C8.6836 4.72203 11.9073 8.77728 11.9073 8.77728C11.9073 8.77728 6.73649 8.90699 5.58114 8.36465C4.42984 7.82635 3.92892 6.45024 4.47023 5.29675C5.00751 4.14327 6.37696 3.64545 7.5323 4.18374Z" stroke="#F8F8F8" stroke-width="1.5" stroke-miterlimit="10" stroke-linecap="round" stroke-linejoin="round"/>
<path d="M16.4687 4.18374C15.3174 4.72203 12.0938 8.77728 12.0938 8.77728C12.0938 8.77728 17.2645 8.90699 18.4199 8.36465C19.5712 7.82635 20.0721 6.45024 19.5308 5.29675C18.9935 4.14327 17.6241 3.64545 16.4687 4.18374Z" stroke="#F8F8F8" stroke-width="1.5" stroke-miterlimit="10" stroke-linecap="round" stroke-linejoin="round"/>
<path d="M2.47266 15.4492V25.0007H21.5318V15.4492" stroke="#F8F8F8" stroke-width="1.5" stroke-miterlimit="10" stroke-linejoin="round"/>
<path d="M13.6886 13.4723H23V8.77734H1V13.4723H10.3074" stroke="#F8F8F8" stroke-width="1.5" stroke-miterlimit="10" stroke-linejoin="round"/>
<path d="M10.375 8.89453V24.93" stroke="#F8F8F8" stroke-width="1.5" stroke-miterlimit="10" stroke-linejoin="round"/>
<path d="M13.623 8.89453V24.93" stroke="#F8F8F8" stroke-width="1.5" stroke-miterlimit="10" stroke-linejoin="round"/>
</svg>
