<svg width="22" height="22" viewBox="0 0 22 22" fill="none" xmlns="http://www.w3.org/2000/svg">
<path d="M11.0003 0.166016C5.02683 0.166016 0.166992 5.02585 0.166992 10.9993C0.166992 16.9728 5.02683 21.8327 11.0003 21.8327C16.9738 21.8327 21.8337 16.9728 21.8337 10.9993C21.8337 5.02585 16.9738 0.166016 11.0003 0.166016ZM8.83474 15.7801L5.57873 12.5311C5.15541 12.1087 5.15456 11.4231 5.57682 10.9997C5.99935 10.576 6.68542 10.5752 7.10891 10.9979L8.83257 12.7186L13.8018 7.74935C14.2248 7.32634 14.9107 7.32634 15.3337 7.74935C15.7567 8.17235 15.7567 8.85818 15.3337 9.28118L8.83474 15.7801Z" fill="#FE004C"/>
</svg>
