<svg width="86" height="86" viewBox="0 0 86 86" fill="none" xmlns="http://www.w3.org/2000/svg">
<circle cx="43" cy="43" r="42" stroke="#F8F8F8" stroke-width="2"/>
<path d="M52.7454 44.2662L52.7424 44.268L36.8358 53.2915C36.8358 53.2915 36.8357 53.2915 36.8356 53.2916C35.7869 53.8857 34.5 53.1456 34.5 52.0229V33.9757C34.5 32.8549 35.7849 32.1132 36.8356 32.7095L36.8356 32.7095L52.7424 41.7331L52.7454 41.7348C52.9764 41.8638 53.167 42.0493 53.299 42.2716C53.431 42.4938 53.5 42.7452 53.5 43.0005C53.5 43.2558 53.431 43.5073 53.299 43.7295C53.167 43.9517 52.9764 44.1373 52.7454 44.2662Z" fill="#F8F8F8" stroke="#F8F8F8"/>
</svg>
