<svg width="34" height="20" viewBox="0 0 34 20" fill="none" xmlns="http://www.w3.org/2000/svg">
<path d="M12.113 1.8457C10.5007 3.25283 9.48047 5.338 9.48047 7.66929C9.48047 11.9 12.8463 15.3319 16.9954 15.3319C21.1446 15.3319 24.5104 11.9 24.5104 7.66929C24.5104 5.41231 23.5585 3.38742 22.0373 1.98493" stroke="#828282" stroke-width="1.5" stroke-miterlimit="10" stroke-linejoin="round"/>
<path d="M16.9955 4.49609C15.2739 4.49609 13.8848 5.91719 13.8848 7.66798C13.8848 9.41876 15.2784 10.8394 16.9955 10.8394C18.7125 10.8394 20.1062 9.41876 20.1062 7.66798" stroke="#828282" stroke-width="1.5" stroke-miterlimit="10" stroke-linecap="round" stroke-linejoin="round"/>
<path d="M1 9.77234C1 9.77234 8.16425 19 17 19C25.8358 19 33 10 33 10C33 10 25.8358 1 17 1C8.15969 1.00464 1 9.77234 1 9.77234Z" stroke="#828282" stroke-width="1.5" stroke-miterlimit="10" stroke-linejoin="round"/>
</svg>
