<svg width="31" height="26" viewBox="0 0 31 26" fill="none" xmlns="http://www.w3.org/2000/svg">
<path d="M19.8323 13.8794H22.2127L26.4329 18.7762V13.8794H27.5757C28.8628 13.8794 29.9148 12.8274 29.9148 11.5403V3.33906C29.9148 2.05194 28.8628 1 27.5757 1H15.2903C14.0031 1 12.9512 2.05194 12.9512 3.33906V5.1544" stroke="#7D7987" stroke-width="1.5" stroke-miterlimit="10" stroke-linejoin="round"/>
<path d="M19.9273 9.55591L21.4455 11.111L24.952 7.52222C25.7895 6.66414 25.8019 5.26976 24.9809 4.42818C24.16 3.5866 22.8027 3.59901 21.9611 4.46122L21.4455 4.993L20.9298 4.46122C20.0923 3.60313 18.731 3.5866 17.91 4.42818C17.6295 4.71696 17.4438 5.0676 17.3613 5.44301" stroke="#7D7987" stroke-width="1.5" stroke-miterlimit="10" stroke-linejoin="round"/>
<path d="M13.0221 10.4184C12.2011 9.57683 10.8439 9.58924 10.0023 10.4514L9.48248 10.9796L8.9668 10.4514C8.12935 9.59337 6.7721 9.57683 5.94702 10.4184C5.12194 11.26 5.13844 12.6544 5.9759 13.5125L9.48248 17.1016L12.9891 13.5125C13.8306 12.6503 13.8471 11.26 13.0221 10.4184Z" stroke="#7D7987" stroke-width="1.5" stroke-miterlimit="10" stroke-linecap="round" stroke-linejoin="round"/>
<path d="M4.48574 24.7499V19.853H3.343C2.05588 19.853 1.00391 18.801 1.00391 17.5139V9.3127C1.00391 8.02558 2.05588 6.97363 3.343 6.97363H15.6284C16.9155 6.97363 17.9675 8.02558 17.9675 9.3127V17.5139C17.9675 18.801 16.9155 19.853 15.6284 19.853H8.70601L4.48574 24.7499Z" stroke="#7D7987" stroke-width="1.5" stroke-miterlimit="10" stroke-linecap="round" stroke-linejoin="round"/>
</svg>
