<svg width="26" height="26" viewBox="0 0 26 26" fill="none" xmlns="http://www.w3.org/2000/svg">
<path d="M5.20677 17.6306L3.30652 20.2781L5.72661 22.6978L8.37386 20.7977C9.10339 21.2302 9.89844 21.5666 10.7415 21.7806L11.2876 25.0045H14.7124L15.2628 21.7806C16.1059 21.5622 16.901 21.2302 17.6305 20.7977L20.2778 22.6978L22.6979 20.2781L20.7976 17.6306C21.2344 16.8968 21.5708 16.0931 21.7849 15.2412L25 14.7127V11.2879L21.7849 10.7594C21.5708 9.91627 21.2388 9.12093 20.8063 8.38704L22.6935 5.72248L20.2734 3.30237L17.6087 5.19392C16.8791 4.76145 16.0841 4.42935 15.2366 4.2153L14.708 1H11.2832L10.7546 4.21956C9.91154 4.43361 9.11649 4.76572 8.38697 5.19819L5.72224 3.30664L3.30215 5.72675L5.19367 8.3913C4.76556 9.11646 4.43356 9.90751 4.21951 10.7419L1 11.2879V14.7127L4.21951 15.2587C4.43793 16.1062 4.76993 16.9011 5.20677 17.6306Z" stroke="#7D7987" stroke-width="1.5" stroke-miterlimit="10" stroke-linecap="round" stroke-linejoin="round"/>
<path d="M11.6803 9.75474C12.0866 9.58874 12.5365 9.49707 13.0039 9.49707C14.9391 9.49707 16.5117 11.0654 16.5117 13.005C16.5117 14.9402 14.9435 16.513 13.0039 16.513C11.0687 16.513 9.49609 14.9446 9.49609 13.005C9.49609 12.673 9.54415 12.3497 9.63151 12.0439" stroke="#7D7987" stroke-width="1.5" stroke-miterlimit="10" stroke-linecap="round" stroke-linejoin="round"/>
</svg>
