<svg width="20" height="24" viewBox="0 0 20 24" fill="none" xmlns="http://www.w3.org/2000/svg">
<path d="M13.6049 14.2868C14.4678 13.3964 14.4821 11.9533 13.637 11.0845C12.792 10.2121 11.3943 10.2264 10.5349 11.1167L10.0001 11.6624L9.46881 11.1167C8.60593 10.2264 7.21179 10.2121 6.36674 11.0845C5.52169 11.9568 5.53594 13.4 6.39882 14.2868L10.0036 18.0025L13.6049 14.2868Z" stroke="#7D7987" stroke-width="1.5" stroke-miterlimit="10" stroke-linecap="round" stroke-linejoin="round"/>
<path d="M6.39258 8.64326V4.65107C6.39258 2.64422 8.01493 1 10.001 1C11.9835 1 13.6094 2.64063 13.6094 4.65107V8.63975" stroke="#7D7987" stroke-width="1.5" stroke-miterlimit="10" stroke-linejoin="round"/>
<path d="M2.8418 20.2822H17.1577" stroke="#7D7987" stroke-width="1.5" stroke-miterlimit="10"/>
<path d="M6.52539 6.41406H12.0307" stroke="#7D7987" stroke-width="1.5" stroke-miterlimit="10" stroke-linejoin="round"/>
<path d="M13.7137 6.41406H18.2742L18.998 21.6755C19.0443 22.6771 18.2849 23.0002 17.258 23.0002H2.74234C1.71544 23.0002 0.952396 22.6807 1.00232 21.6755L1.72615 6.41406H4.81753" stroke="#7D7987" stroke-width="1.5" stroke-miterlimit="10" stroke-linejoin="round"/>
</svg>
