<svg width="22" height="25" viewBox="0 0 22 25" fill="none" xmlns="http://www.w3.org/2000/svg">
<path d="M17.3465 21.2271C17.3465 21.2271 11.7171 16.9623 11.4727 16.7665C11.2282 16.5668 10.7274 16.5785 10.4349 16.8017C10.0743 17.0758 4.46484 21.2271 4.46484 21.2271" stroke="#7D7987" stroke-width="1.5" stroke-miterlimit="10" stroke-linecap="round" stroke-linejoin="round"/>
<path d="M18.973 12.0869V2.17487C18.973 1.52869 18.4321 1 17.771 1H4.04382C3.38271 1 2.8418 1.52869 2.8418 2.17487V9.62354" stroke="#7D7987" stroke-width="1.5" stroke-miterlimit="10" stroke-linejoin="round"/>
<path d="M10.9074 12.8111L15.0384 8.67557C16.024 7.68476 16.044 6.07916 15.0744 5.10794C14.1048 4.13672 12.5061 4.15232 11.5164 5.14313L10.9034 5.75026L10.2944 5.14313C9.3087 4.15232 7.706 4.13672 6.73637 5.10794C5.76674 6.07916 5.78276 7.68476 6.77243 8.67557L10.9074 12.8111Z" stroke="#7D7987" stroke-width="1.5" stroke-miterlimit="10" stroke-linecap="round" stroke-linejoin="round"/>
<path d="M12.3359 17.3079L20.3855 11.0381" stroke="#7D7987" stroke-width="1.5" stroke-miterlimit="10" stroke-linecap="round" stroke-linejoin="round"/>
<path d="M9.4779 17.307L1.4043 11.0254V22.9582C1.4043 23.53 1.89312 23.9998 2.48612 23.9998H19.3185C19.9155 23.9998 20.4043 23.53 20.4043 22.9582V11.0254H19.046" stroke="#7D7987" stroke-width="1.5" stroke-miterlimit="10" stroke-linejoin="round"/>
</svg>
