<svg width="23" height="32" viewBox="0 0 23 32" fill="none" xmlns="http://www.w3.org/2000/svg">
<path d="M14.6845 9.33738C15.382 8.63986 16.5132 8.6303 17.1965 9.31368C17.8799 9.99706 17.8705 11.1282 17.173 11.8257L14.2556 14.7384L11.3383 11.8257C10.6408 11.1282 10.6313 9.99706 11.3147 9.31368C11.9981 8.6303 13.1292 8.63986 13.8267 9.33738L14.2556 9.76611L14.6845 9.33738Z" stroke="#7D7987" stroke-width="1.5" stroke-miterlimit="10" stroke-linecap="round" stroke-linejoin="round"/>
<path d="M6.68359 20.2425V7.43733C6.68359 6.7021 7.28685 6.10352 8.01736 6.10352H20.4926C21.2279 6.10352 21.8264 6.70681 21.8264 7.43733V16.1847C21.8264 16.9199 21.2232 17.5185 20.4926 17.5185H9.74704L6.68359 20.2425Z" stroke="#7D7987" stroke-width="1.5" stroke-miterlimit="10" stroke-linecap="round" stroke-linejoin="round"/>
<path d="M17.25 19.7104V29.1364C17.25 29.8716 16.6467 30.4702 15.9162 30.4702H2.26737C1.53214 30.4702 0.933594 29.8716 0.933594 29.1364V2.33358C0.933594 1.59836 1.53214 1 2.26737 1H15.9115C16.6467 1 17.2452 1.59836 17.2452 2.33358V4.0303" stroke="#7D7987" stroke-width="1.5" stroke-miterlimit="10" stroke-linejoin="round"/>
<path d="M0.923828 24.6875H17.2496" stroke="#7D7987" stroke-width="1.5" stroke-miterlimit="10" stroke-linejoin="round"/>
<path d="M7.97852 27.5156H10.1983" stroke="#7D7987" stroke-width="1.5" stroke-miterlimit="10" stroke-linecap="round" stroke-linejoin="round"/>
<path d="M0.923828 24.6875H17.2496" stroke="#7D7987" stroke-width="1.5" stroke-miterlimit="10" stroke-linejoin="round"/>
</svg>
