<svg width="22" height="24" viewBox="0 0 22 24" fill="none" xmlns="http://www.w3.org/2000/svg">
<path d="M13.8565 16.629C13.7959 15.7888 13.7789 14.946 13.8056 14.104L13.8046 14.141C14.5418 13.3609 15.0015 12.3512 15.1104 11.273L15.1124 11.252C15.4445 11.224 15.9686 10.894 16.1214 9.586C16.1675 9.36073 16.1501 9.12673 16.0712 8.91114C15.9923 8.69556 15.8552 8.50723 15.6757 8.368L15.6727 8.366C16.2135 6.706 17.3361 1.57 13.595 1.04C13.21 0.35 12.2245 0 10.9432 0C5.8169 0.096 5.19877 3.951 6.31944 8.366C6.13849 8.5065 6.00047 8.6967 5.92154 8.91435C5.84261 9.13199 5.82602 9.36808 5.87372 9.595L5.87274 9.587C6.02948 10.893 6.54965 11.225 6.88173 11.253C6.99822 12.3432 7.4726 13.361 8.22771 14.141C8.25255 14.9978 8.23358 15.8553 8.1709 16.71L8.17579 16.629C7.15896 19.413 0.313474 18.631 0 24H22C21.6846 18.631 14.8704 19.413 13.8556 16.629H13.8565Z" fill="#7D7987"/>
</svg>
