<svg width="20" height="22" viewBox="0 0 20 22" fill="none" xmlns="http://www.w3.org/2000/svg">
<path d="M16.025 14.7421C13.2652 13.7472 12.3833 14.2485 12.3833 12.4509C12.3833 12.3651 12.3887 12.2038 12.3988 12.0389H12.5338C14.4199 12.1764 16.2369 12.3079 16.6413 12.0251C17.2872 11.574 15.0516 10.8787 15.0516 5.04198C15.0516 2.0928 13.108 4.56655e-05 10.1588 4.56655e-05C10.1337 4.56655e-05 10.1091 0.00155263 10.0844 0.00200928C10.0775 0.00182662 10.0704 0.00173529 10.0636 0.00136997V0.000821979C10.0526 0.000821979 10.0415 0 10.0304 0C10.027 0 10.0236 0.000182662 10.0201 0.000182662C10.0167 0.000182662 10.0134 0 10.0099 0C10.0067 0 10.0034 0.000182662 10.0002 0.000273993C9.99697 0.000182662 9.99373 0 9.99049 0C9.98702 0 9.98369 0.000182662 9.98031 0.000182662C9.97684 0.000182662 9.97346 0 9.96994 0C9.95889 0 9.94784 0.000821979 9.93674 0.000821979V0.00136997C9.92994 0.00173529 9.9229 0.00182662 9.91596 0.00200928C9.89121 0.00155263 9.8666 4.56655e-05 9.84157 4.56655e-05C6.89245 4.56655e-05 4.94874 2.0928 4.94874 5.04198C4.94874 10.8787 2.71337 11.574 3.35908 12.0251C3.76349 12.3077 5.58057 12.1764 7.4666 12.0389H7.60168C7.61173 12.2038 7.61712 12.3652 7.61712 12.4509C7.61712 14.2485 6.73518 13.7472 3.97543 14.7421C1.20718 15.7405 0.40918 16.7583 0.40918 17.4526C0.40918 18.1458 0.40918 22 0.40918 22H9.97327H9.98707H10.0001H10.0132H10.027H19.5911C19.5911 22 19.5911 18.1458 19.5911 17.4526C19.5912 16.7584 18.7932 15.7406 16.025 14.7421Z" fill="#7D7987"/>
</svg>
